<?xml version="1.0" encoding="UTF-8" standalone="no"?>
<!DOCTYPE svg PUBLIC "-//W3C//DTD SVG 1.1//EN"
 "http://www.w3.org/Graphics/SVG/1.1/DTD/svg11.dtd">
<!-- Generated by graphviz version 2.40.1 (20161225.0304)
 -->
<!-- Title: %3 Pages: 1 -->
<svg width="2942pt" height="1052pt"
 viewBox="0.00 0.00 2941.91 1052.00" xmlns="http://www.w3.org/2000/svg" xmlns:xlink="http://www.w3.org/1999/xlink">
<g id="graph0" class="graph" transform="scale(1 1) rotate(0) translate(4 1048)">
<title>%3</title>
<polygon fill="#ffffff" stroke="transparent" points="-4,4 -4,-1048 2937.9106,-1048 2937.9106,4 -4,4"/>
<!-- [root] module.container.docker_container.app_container (expand) -->
<g id="node1" class="node">
<title>[root] module.container.docker_container.app_container (expand)</title>
<polygon fill="none" stroke="#000000" points="1623.4792,-684 1248.4792,-684 1248.4792,-648 1623.4792,-648 1623.4792,-684"/>
<text text-anchor="middle" x="1435.9792" y="-662.3" font-family="Times,serif" font-size="14.00" fill="#000000">module.container.docker_container.app_container</text>
</g>
<!-- [root] module.container.module.volume (close) -->
<g id="node16" class="node">
<title>[root] module.container.module.volume (close)</title>
<ellipse fill="none" stroke="#000000" cx="1421.9792" cy="-594" rx="227.4596" ry="18"/>
<text text-anchor="middle" x="1421.9792" y="-590.3" font-family="Times,serif" font-size="14.00" fill="#000000">[root] module.container.module.volume (close)</text>
</g>
<!-- [root] module.container.docker_container.app_container (expand)&#45;&gt;[root] module.container.module.volume (close) -->
<g id="edge7" class="edge">
<title>[root] module.container.docker_container.app_container (expand)&#45;&gt;[root] module.container.module.volume (close)</title>
<path fill="none" stroke="#000000" d="M1432.4464,-647.8314C1430.9491,-640.131 1429.1687,-630.9743 1427.5047,-622.4166"/>
<polygon fill="#000000" stroke="#000000" points="1430.904,-621.5614 1425.5596,-612.4133 1424.0327,-622.8975 1430.904,-621.5614"/>
</g>
<!-- [root] module.container.var.ext_port_in (expand) -->
<g id="node17" class="node">
<title>[root] module.container.var.ext_port_in (expand)</title>
<ellipse fill="none" stroke="#000000" cx="2521.9792" cy="-522" rx="235.8582" ry="18"/>
<text text-anchor="middle" x="2521.9792" y="-518.3" font-family="Times,serif" font-size="14.00" fill="#000000">[root] module.container.var.ext_port_in (expand)</text>
</g>
<!-- [root] module.container.docker_container.app_container (expand)&#45;&gt;[root] module.container.var.ext_port_in (expand) -->
<g id="edge8" class="edge">
<title>[root] module.container.docker_container.app_container (expand)&#45;&gt;[root] module.container.var.ext_port_in (expand)</title>
<path fill="none" stroke="#000000" d="M1623.8332,-660.4502C1834.048,-653.1005 2161.0117,-637.9423 2281.9792,-612 2351.587,-597.0721 2427.9216,-565.6548 2475.3923,-544.1867"/>
<polygon fill="#000000" stroke="#000000" points="2477.138,-547.2372 2484.781,-539.8999 2474.2306,-540.8696 2477.138,-547.2372"/>
</g>
<!-- [root] module.container.var.image_in (expand) -->
<g id="node18" class="node">
<title>[root] module.container.var.image_in (expand)</title>
<ellipse fill="none" stroke="#000000" cx="2046.9792" cy="-594" rx="225.56" ry="18"/>
<text text-anchor="middle" x="2046.9792" y="-590.3" font-family="Times,serif" font-size="14.00" fill="#000000">[root] module.container.var.image_in (expand)</text>
</g>
<!-- [root] module.container.docker_container.app_container (expand)&#45;&gt;[root] module.container.var.image_in (expand) -->
<g id="edge9" class="edge">
<title>[root] module.container.docker_container.app_container (expand)&#45;&gt;[root] module.container.var.image_in (expand)</title>
<path fill="none" stroke="#000000" d="M1588.9778,-647.9707C1687.6421,-636.3441 1814.8486,-621.3542 1910.1542,-610.1234"/>
<polygon fill="#000000" stroke="#000000" points="1910.6284,-613.5918 1920.15,-608.9455 1909.8091,-606.6399 1910.6284,-613.5918"/>
</g>
<!-- [root] module.container.var.int_port_in (expand) -->
<g id="node19" class="node">
<title>[root] module.container.var.int_port_in (expand)</title>
<ellipse fill="none" stroke="#000000" cx="233.9792" cy="-450" rx="233.9585" ry="18"/>
<text text-anchor="middle" x="233.9792" y="-446.3" font-family="Times,serif" font-size="14.00" fill="#000000">[root] module.container.var.int_port_in (expand)</text>
</g>
<!-- [root] module.container.docker_container.app_container (expand)&#45;&gt;[root] module.container.var.int_port_in (expand) -->
<g id="edge10" class="edge">
<title>[root] module.container.docker_container.app_container (expand)&#45;&gt;[root] module.container.var.int_port_in (expand)</title>
<path fill="none" stroke="#000000" d="M1335.5648,-647.9555C1109.702,-607.3678 563.6534,-509.2426 336.1453,-468.3593"/>
<polygon fill="#000000" stroke="#000000" points="336.6735,-464.8982 326.2121,-466.5743 335.4354,-471.7879 336.6735,-464.8982"/>
</g>
<!-- [root] module.container.module.volume.docker_volume.container_volume (expand) -->
<g id="node2" class="node">
<title>[root] module.container.module.volume.docker_volume.container_volume (expand)</title>
<polygon fill="none" stroke="#000000" points="1717.4792,-468 1218.4792,-468 1218.4792,-432 1717.4792,-432 1717.4792,-468"/>
<text text-anchor="middle" x="1467.9792" y="-446.3" font-family="Times,serif" font-size="14.00" fill="#000000">module.container.module.volume.docker_volume.container_volume</text>
</g>
<!-- [root] provider[&quot;registry.terraform.io/kreuzwerker/docker&quot;] -->
<g id="node7" class="node">
<title>[root] provider[&quot;registry.terraform.io/kreuzwerker/docker&quot;]</title>
<polygon fill="none" stroke="#000000" points="1830.9792,-324 1465.33,-306 1830.9792,-288 2196.6285,-306 1830.9792,-324"/>
<text text-anchor="middle" x="1830.9792" y="-302.3" font-family="Times,serif" font-size="14.00" fill="#000000">provider[&quot;registry.terraform.io/kreuzwerker/docker&quot;]</text>
</g>
<!-- [root] module.container.module.volume.docker_volume.container_volume (expand)&#45;&gt;[root] provider[&quot;registry.terraform.io/kreuzwerker/docker&quot;] -->
<g id="edge15" class="edge">
<title>[root] module.container.module.volume.docker_volume.container_volume (expand)&#45;&gt;[root] provider[&quot;registry.terraform.io/kreuzwerker/docker&quot;]</title>
<path fill="none" stroke="#000000" d="M1639.2718,-431.9508C1696.0693,-423.4009 1750.7329,-411.5799 1773.9792,-396 1796.4246,-380.9569 1811.8152,-353.7727 1820.8932,-333.2039"/>
<polygon fill="#000000" stroke="#000000" points="1824.2294,-334.2969 1824.8458,-323.72 1817.7681,-331.604 1824.2294,-334.2969"/>
</g>
<!-- [root] module.container.module.volume.var.volume_count (expand) -->
<g id="node24" class="node">
<title>[root] module.container.module.volume.var.volume_count (expand)</title>
<ellipse fill="none" stroke="#000000" cx="1144.9792" cy="-378" rx="321.9431" ry="18"/>
<text text-anchor="middle" x="1144.9792" y="-374.3" font-family="Times,serif" font-size="14.00" fill="#000000">[root] module.container.module.volume.var.volume_count (expand)</text>
</g>
<!-- [root] module.container.module.volume.docker_volume.container_volume (expand)&#45;&gt;[root] module.container.module.volume.var.volume_count (expand) -->
<g id="edge14" class="edge">
<title>[root] module.container.module.volume.docker_volume.container_volume (expand)&#45;&gt;[root] module.container.module.volume.var.volume_count (expand)</title>
<path fill="none" stroke="#000000" d="M1386.8896,-431.9243C1340.1335,-421.5019 1281.305,-408.3884 1233.3689,-397.703"/>
<polygon fill="#000000" stroke="#000000" points="1233.8354,-394.2211 1223.3134,-395.4615 1232.3124,-401.0534 1233.8354,-394.2211"/>
</g>
<!-- [root] provisioner.local&#45;exec -->
<g id="node25" class="node">
<title>[root] provisioner.local&#45;exec</title>
<ellipse fill="none" stroke="#000000" cx="1624.9792" cy="-378" rx="140.2752" ry="18"/>
<text text-anchor="middle" x="1624.9792" y="-374.3" font-family="Times,serif" font-size="14.00" fill="#000000">[root] provisioner.local&#45;exec</text>
</g>
<!-- [root] module.container.module.volume.docker_volume.container_volume (expand)&#45;&gt;[root] provisioner.local&#45;exec -->
<g id="edge16" class="edge">
<title>[root] module.container.module.volume.docker_volume.container_volume (expand)&#45;&gt;[root] provisioner.local&#45;exec</title>
<path fill="none" stroke="#000000" d="M1507.597,-431.8314C1528.8989,-422.0623 1555.3113,-409.9496 1577.6845,-399.6893"/>
<polygon fill="#000000" stroke="#000000" points="1579.3682,-402.7677 1586.999,-395.4177 1576.4502,-396.4049 1579.3682,-402.7677"/>
</g>
<!-- [root] module.container.random_string.random (expand) -->
<g id="node3" class="node">
<title>[root] module.container.random_string.random (expand)</title>
<polygon fill="none" stroke="#000000" points="1348.4792,-324 1039.4792,-324 1039.4792,-288 1348.4792,-288 1348.4792,-324"/>
<text text-anchor="middle" x="1193.9792" y="-302.3" font-family="Times,serif" font-size="14.00" fill="#000000">module.container.random_string.random</text>
</g>
<!-- [root] provider[&quot;registry.terraform.io/hashicorp/random&quot;] -->
<g id="node6" class="node">
<title>[root] provider[&quot;registry.terraform.io/hashicorp/random&quot;]</title>
<polygon fill="none" stroke="#000000" points="1356.9792,-252 1004.9048,-234 1356.9792,-216 1709.0537,-234 1356.9792,-252"/>
<text text-anchor="middle" x="1356.9792" y="-230.3" font-family="Times,serif" font-size="14.00" fill="#000000">provider[&quot;registry.terraform.io/hashicorp/random&quot;]</text>
</g>
<!-- [root] module.container.random_string.random (expand)&#45;&gt;[root] provider[&quot;registry.terraform.io/hashicorp/random&quot;] -->
<g id="edge25" class="edge">
<title>[root] module.container.random_string.random (expand)&#45;&gt;[root] provider[&quot;registry.terraform.io/hashicorp/random&quot;]</title>
<path fill="none" stroke="#000000" d="M1235.111,-287.8314C1258.2571,-277.6073 1287.2147,-264.8162 1311.0943,-254.2682"/>
<polygon fill="#000000" stroke="#000000" points="1312.5768,-257.4396 1320.31,-250.1975 1309.7484,-251.0365 1312.5768,-257.4396"/>
</g>
<!-- [root] module.container.var.count_in (expand) -->
<g id="node23" class="node">
<title>[root] module.container.var.count_in (expand)</title>
<ellipse fill="none" stroke="#000000" cx="762.9792" cy="-234" rx="223.6604" ry="18"/>
<text text-anchor="middle" x="762.9792" y="-230.3" font-family="Times,serif" font-size="14.00" fill="#000000">[root] module.container.var.count_in (expand)</text>
</g>
<!-- [root] module.container.random_string.random (expand)&#45;&gt;[root] module.container.var.count_in (expand) -->
<g id="edge24" class="edge">
<title>[root] module.container.random_string.random (expand)&#45;&gt;[root] module.container.var.count_in (expand)</title>
<path fill="none" stroke="#000000" d="M1086.0539,-287.9707C1020.1204,-276.9563 936.1176,-262.9234 870.2958,-251.9276"/>
<polygon fill="#000000" stroke="#000000" points="870.7477,-248.4547 860.3076,-250.259 869.5942,-255.359 870.7477,-248.4547"/>
</g>
<!-- [root] module.image.docker_image.container_img (expand) -->
<g id="node4" class="node">
<title>[root] module.image.docker_image.container_img (expand)</title>
<polygon fill="none" stroke="#000000" points="2389.4792,-396 2060.4792,-396 2060.4792,-360 2389.4792,-360 2389.4792,-396"/>
<text text-anchor="middle" x="2224.9792" y="-374.3" font-family="Times,serif" font-size="14.00" fill="#000000">module.image.docker_image.container_img</text>
</g>
<!-- [root] module.image.docker_image.container_img (expand)&#45;&gt;[root] provider[&quot;registry.terraform.io/kreuzwerker/docker&quot;] -->
<g id="edge36" class="edge">
<title>[root] module.image.docker_image.container_img (expand)&#45;&gt;[root] provider[&quot;registry.terraform.io/kreuzwerker/docker&quot;]</title>
<path fill="none" stroke="#000000" d="M2126.319,-359.9707C2062.5146,-348.311 1980.2,-333.2688 1918.6856,-322.0276"/>
<polygon fill="#000000" stroke="#000000" points="1919.0785,-318.5415 1908.6122,-320.1867 1917.8201,-325.4274 1919.0785,-318.5415"/>
</g>
<!-- [root] module.image.var.image_in (expand) -->
<g id="node31" class="node">
<title>[root] module.image.var.image_in (expand)</title>
<ellipse fill="none" stroke="#000000" cx="2723.9792" cy="-306" rx="209.8628" ry="18"/>
<text text-anchor="middle" x="2723.9792" y="-302.3" font-family="Times,serif" font-size="14.00" fill="#000000">[root] module.image.var.image_in (expand)</text>
</g>
<!-- [root] module.image.docker_image.container_img (expand)&#45;&gt;[root] module.image.var.image_in (expand) -->
<g id="edge35" class="edge">
<title>[root] module.image.docker_image.container_img (expand)&#45;&gt;[root] module.image.var.image_in (expand)</title>
<path fill="none" stroke="#000000" d="M2349.9322,-359.9707C2428.5343,-348.6293 2529.317,-334.0875 2606.461,-322.9565"/>
<polygon fill="#000000" stroke="#000000" points="2607.3071,-326.3708 2616.7047,-321.4785 2606.3073,-319.4425 2607.3071,-326.3708"/>
</g>
<!-- [root] output.application_access -->
<g id="node5" class="node">
<title>[root] output.application_access</title>
<polygon fill="none" stroke="#000000" points="1404.4792,-900 1207.4792,-900 1207.4792,-864 1410.4792,-864 1410.4792,-894 1404.4792,-900"/>
<polyline fill="none" stroke="#000000" points="1404.4792,-900 1404.4792,-894 "/>
<polyline fill="none" stroke="#000000" points="1410.4792,-894 1404.4792,-894 "/>
<text text-anchor="middle" x="1308.9792" y="-878.3" font-family="Times,serif" font-size="14.00" fill="#000000">output.application_access</text>
</g>
<!-- [root] module.container (close) -->
<g id="node13" class="node">
<title>[root] module.container (close)</title>
<ellipse fill="none" stroke="#000000" cx="1308.9792" cy="-810" rx="154.8728" ry="18"/>
<text text-anchor="middle" x="1308.9792" y="-806.3" font-family="Times,serif" font-size="14.00" fill="#000000">[root] module.container (close)</text>
</g>
<!-- [root] output.application_access&#45;&gt;[root] module.container (close) -->
<g id="edge39" class="edge">
<title>[root] output.application_access&#45;&gt;[root] module.container (close)</title>
<path fill="none" stroke="#000000" d="M1308.9792,-863.8314C1308.9792,-856.131 1308.9792,-846.9743 1308.9792,-838.4166"/>
<polygon fill="#000000" stroke="#000000" points="1312.4793,-838.4132 1308.9792,-828.4133 1305.4793,-838.4133 1312.4793,-838.4132"/>
</g>
<!-- [root] var.ext_port -->
<g id="node8" class="node">
<title>[root] var.ext_port</title>
<polygon fill="none" stroke="#000000" points="2116.4792,-36 2019.4792,-36 2019.4792,0 2122.4792,0 2122.4792,-30 2116.4792,-36"/>
<polyline fill="none" stroke="#000000" points="2116.4792,-36 2116.4792,-30 "/>
<polyline fill="none" stroke="#000000" points="2122.4792,-30 2116.4792,-30 "/>
<text text-anchor="middle" x="2070.9792" y="-14.3" font-family="Times,serif" font-size="14.00" fill="#000000">var.ext_port</text>
</g>
<!-- [root] var.image -->
<g id="node9" class="node">
<title>[root] var.image</title>
<polygon fill="none" stroke="#000000" points="2220.9792,-36 2140.9792,-36 2140.9792,0 2226.9792,0 2226.9792,-30 2220.9792,-36"/>
<polyline fill="none" stroke="#000000" points="2220.9792,-36 2220.9792,-30 "/>
<polyline fill="none" stroke="#000000" points="2226.9792,-30 2220.9792,-30 "/>
<text text-anchor="middle" x="2183.9792" y="-14.3" font-family="Times,serif" font-size="14.00" fill="#000000">var.image</text>
</g>
<!-- [root] var.int_port -->
<g id="node10" class="node">
<title>[root] var.int_port</title>
<polygon fill="none" stroke="#000000" points="1182.9792,-900 1088.9792,-900 1088.9792,-864 1188.9792,-864 1188.9792,-894 1182.9792,-900"/>
<polyline fill="none" stroke="#000000" points="1182.9792,-900 1182.9792,-894 "/>
<polyline fill="none" stroke="#000000" points="1188.9792,-894 1182.9792,-894 "/>
<text text-anchor="middle" x="1138.9792" y="-878.3" font-family="Times,serif" font-size="14.00" fill="#000000">var.int_port</text>
</g>
<!-- [root] local.deployment (expand) -->
<g id="node11" class="node">
<title>[root] local.deployment (expand)</title>
<ellipse fill="none" stroke="#000000" cx="2126.9792" cy="-90" rx="162.4712" ry="18"/>
<text text-anchor="middle" x="2126.9792" y="-86.3" font-family="Times,serif" font-size="14.00" fill="#000000">[root] local.deployment (expand)</text>
</g>
<!-- [root] local.deployment (expand)&#45;&gt;[root] var.ext_port -->
<g id="edge1" class="edge">
<title>[root] local.deployment (expand)&#45;&gt;[root] var.ext_port</title>
<path fill="none" stroke="#000000" d="M2112.8481,-71.8314C2106.3982,-63.5386 2098.6347,-53.557 2091.5541,-44.4533"/>
<polygon fill="#000000" stroke="#000000" points="2094.2029,-42.158 2085.3007,-36.4133 2088.6774,-46.4556 2094.2029,-42.158"/>
</g>
<!-- [root] local.deployment (expand)&#45;&gt;[root] var.image -->
<g id="edge2" class="edge">
<title>[root] local.deployment (expand)&#45;&gt;[root] var.image</title>
<path fill="none" stroke="#000000" d="M2141.3627,-71.8314C2147.9278,-63.5386 2155.8299,-53.557 2163.037,-44.4533"/>
<polygon fill="#000000" stroke="#000000" points="2165.9392,-46.4262 2169.4021,-36.4133 2160.4508,-42.0813 2165.9392,-46.4262"/>
</g>
<!-- [root] meta.count&#45;boundary (EachMode fixup) -->
<g id="node12" class="node">
<title>[root] meta.count&#45;boundary (EachMode fixup)</title>
<ellipse fill="none" stroke="#000000" cx="1236.9792" cy="-954" rx="224.4604" ry="18"/>
<text text-anchor="middle" x="1236.9792" y="-950.3" font-family="Times,serif" font-size="14.00" fill="#000000">[root] meta.count&#45;boundary (EachMode fixup)</text>
</g>
<!-- [root] meta.count&#45;boundary (EachMode fixup)&#45;&gt;[root] output.application_access -->
<g id="edge3" class="edge">
<title>[root] meta.count&#45;boundary (EachMode fixup)&#45;&gt;[root] output.application_access</title>
<path fill="none" stroke="#000000" d="M1255.1479,-935.8314C1263.6945,-927.2848 1274.0349,-916.9443 1283.3594,-907.6198"/>
<polygon fill="#000000" stroke="#000000" points="1285.9698,-909.9592 1290.566,-900.4133 1281.02,-905.0095 1285.9698,-909.9592"/>
</g>
<!-- [root] meta.count&#45;boundary (EachMode fixup)&#45;&gt;[root] var.int_port -->
<g id="edge4" class="edge">
<title>[root] meta.count&#45;boundary (EachMode fixup)&#45;&gt;[root] var.int_port</title>
<path fill="none" stroke="#000000" d="M1212.5025,-936.0171C1200.2249,-926.9968 1185.1797,-915.9432 1171.9047,-906.1901"/>
<polygon fill="#000000" stroke="#000000" points="1173.6147,-903.1034 1163.4836,-900.0032 1169.4701,-908.7446 1173.6147,-903.1034"/>
</g>
<!-- [root] module.container.output.application_access (expand) -->
<g id="node14" class="node">
<title>[root] module.container.output.application_access (expand)</title>
<ellipse fill="none" stroke="#000000" cx="1449.9792" cy="-738" rx="287.8489" ry="18"/>
<text text-anchor="middle" x="1449.9792" y="-734.3" font-family="Times,serif" font-size="14.00" fill="#000000">[root] module.container.output.application_access (expand)</text>
</g>
<!-- [root] module.container (close)&#45;&gt;[root] module.container.output.application_access (expand) -->
<g id="edge5" class="edge">
<title>[root] module.container (close)&#45;&gt;[root] module.container.output.application_access (expand)</title>
<path fill="none" stroke="#000000" d="M1343.4717,-792.3868C1362.2782,-782.7835 1385.7575,-770.7941 1405.882,-760.5178"/>
<polygon fill="#000000" stroke="#000000" points="1407.5491,-763.5965 1414.8634,-755.9315 1404.3656,-757.3622 1407.5491,-763.5965"/>
</g>
<!-- [root] module.container.output.application_access (expand)&#45;&gt;[root] module.container.docker_container.app_container (expand) -->
<g id="edge23" class="edge">
<title>[root] module.container.output.application_access (expand)&#45;&gt;[root] module.container.docker_container.app_container (expand)</title>
<path fill="none" stroke="#000000" d="M1446.4464,-719.8314C1444.9491,-712.131 1443.1687,-702.9743 1441.5047,-694.4166"/>
<polygon fill="#000000" stroke="#000000" points="1444.904,-693.5614 1439.5596,-684.4133 1438.0327,-694.8975 1444.904,-693.5614"/>
</g>
<!-- [root] module.container (expand) -->
<g id="node15" class="node">
<title>[root] module.container (expand)</title>
<ellipse fill="none" stroke="#000000" cx="1961.9792" cy="-162" rx="164.3708" ry="18"/>
<text text-anchor="middle" x="1961.9792" y="-158.3" font-family="Times,serif" font-size="14.00" fill="#000000">[root] module.container (expand)</text>
</g>
<!-- [root] module.container (expand)&#45;&gt;[root] local.deployment (expand) -->
<g id="edge6" class="edge">
<title>[root] module.container (expand)&#45;&gt;[root] local.deployment (expand)</title>
<path fill="none" stroke="#000000" d="M2002.3428,-144.3868C2024.9995,-134.5002 2053.452,-122.0846 2077.4497,-111.6129"/>
<polygon fill="#000000" stroke="#000000" points="2078.9812,-114.7634 2086.7468,-107.556 2076.1816,-108.3476 2078.9812,-114.7634"/>
</g>
<!-- [root] module.container.module.volume.output.volume_output (expand) -->
<g id="node20" class="node">
<title>[root] module.container.module.volume.output.volume_output (expand)</title>
<ellipse fill="none" stroke="#000000" cx="1421.9792" cy="-522" rx="342.5392" ry="18"/>
<text text-anchor="middle" x="1421.9792" y="-518.3" font-family="Times,serif" font-size="14.00" fill="#000000">[root] module.container.module.volume.output.volume_output (expand)</text>
</g>
<!-- [root] module.container.module.volume (close)&#45;&gt;[root] module.container.module.volume.output.volume_output (expand) -->
<g id="edge11" class="edge">
<title>[root] module.container.module.volume (close)&#45;&gt;[root] module.container.module.volume.output.volume_output (expand)</title>
<path fill="none" stroke="#000000" d="M1421.9792,-575.8314C1421.9792,-568.131 1421.9792,-558.9743 1421.9792,-550.4166"/>
<polygon fill="#000000" stroke="#000000" points="1425.4793,-550.4132 1421.9792,-540.4133 1418.4793,-550.4133 1425.4793,-550.4132"/>
</g>
<!-- [root] module.container.module.volume.var.volume_name (expand) -->
<g id="node21" class="node">
<title>[root] module.container.module.volume.var.volume_name (expand)</title>
<ellipse fill="none" stroke="#000000" cx="483.9792" cy="-378" rx="321.143" ry="18"/>
<text text-anchor="middle" x="483.9792" y="-374.3" font-family="Times,serif" font-size="14.00" fill="#000000">[root] module.container.module.volume.var.volume_name (expand)</text>
</g>
<!-- [root] module.container.module.volume (close)&#45;&gt;[root] module.container.module.volume.var.volume_name (expand) -->
<g id="edge12" class="edge">
<title>[root] module.container.module.volume (close)&#45;&gt;[root] module.container.module.volume.var.volume_name (expand)</title>
<path fill="none" stroke="#000000" d="M1299.5648,-578.8201C1231.5856,-569.4904 1145.6995,-556.2159 1069.9792,-540 878.5623,-499.0071 656.9384,-432.3861 549.3367,-398.7842"/>
<polygon fill="#000000" stroke="#000000" points="550.1859,-395.3826 539.597,-395.7355 548.0948,-402.063 550.1859,-395.3826"/>
</g>
<!-- [root] module.container.var.ext_port_in (expand)&#45;&gt;[root] module.container (expand) -->
<g id="edge27" class="edge">
<title>[root] module.container.var.ext_port_in (expand)&#45;&gt;[root] module.container (expand)</title>
<path fill="none" stroke="#000000" d="M2514.3446,-503.7257C2503.7771,-476.7325 2485.9792,-424.3849 2485.9792,-378 2485.9792,-378 2485.9792,-378 2485.9792,-306 2485.9792,-227.0105 2261.7905,-189.7453 2106.6948,-173.4159"/>
<polygon fill="#000000" stroke="#000000" points="2106.8889,-169.9174 2096.5819,-172.3704 2106.1689,-176.8803 2106.8889,-169.9174"/>
</g>
<!-- [root] module.container.var.image_in (expand)&#45;&gt;[root] module.container (expand) -->
<g id="edge28" class="edge">
<title>[root] module.container.var.image_in (expand)&#45;&gt;[root] module.container (expand)</title>
<path fill="none" stroke="#000000" d="M2015.5232,-575.9802C2002.948,-566.9479 1989.8404,-554.7662 1982.9792,-540 1962.7528,-496.4697 1965.0832,-476.5391 1982.9792,-432 1999.504,-390.8737 2013.4752,-381.9518 2051.9792,-360 2113.0423,-325.1869 2162.2985,-379.0694 2205.9792,-324 2235.8083,-286.3938 2236.0304,-253.429 2205.9792,-216 2190.7321,-197.0096 2141.933,-184.2902 2091.9417,-175.9938"/>
<polygon fill="#000000" stroke="#000000" points="2092.3645,-172.517 2081.9371,-174.3929 2091.2585,-179.4291 2092.3645,-172.517"/>
</g>
<!-- [root] module.image (close) -->
<g id="node28" class="node">
<title>[root] module.image (close)</title>
<ellipse fill="none" stroke="#000000" cx="2129.9792" cy="-522" rx="138.3755" ry="18"/>
<text text-anchor="middle" x="2129.9792" y="-518.3" font-family="Times,serif" font-size="14.00" fill="#000000">[root] module.image (close)</text>
</g>
<!-- [root] module.container.var.image_in (expand)&#45;&gt;[root] module.image (close) -->
<g id="edge29" class="edge">
<title>[root] module.container.var.image_in (expand)&#45;&gt;[root] module.image (close)</title>
<path fill="none" stroke="#000000" d="M2067.9236,-575.8314C2078.1256,-566.9814 2090.5449,-556.2081 2101.5852,-546.631"/>
<polygon fill="#000000" stroke="#000000" points="2104.0686,-549.1101 2109.3291,-539.9134 2099.4817,-543.8223 2104.0686,-549.1101"/>
</g>
<!-- [root] module.container.var.int_port_in (expand)&#45;&gt;[root] module.container (expand) -->
<g id="edge30" class="edge">
<title>[root] module.container.var.int_port_in (expand)&#45;&gt;[root] module.container (expand)</title>
<path fill="none" stroke="#000000" d="M204.1415,-431.8722C139.6253,-390.5896 -1.6241,-287.6161 67.9792,-216 97.7345,-185.3843 1325.4136,-168.9063 1788.0376,-163.7745"/>
<polygon fill="#000000" stroke="#000000" points="1788.1912,-167.2731 1798.1519,-163.6628 1788.1138,-160.2735 1788.1912,-167.2731"/>
</g>
<!-- [root] module.container.module.volume.output.volume_output (expand)&#45;&gt;[root] module.container.module.volume.docker_volume.container_volume (expand) -->
<g id="edge17" class="edge">
<title>[root] module.container.module.volume.output.volume_output (expand)&#45;&gt;[root] module.container.module.volume.docker_volume.container_volume (expand)</title>
<path fill="none" stroke="#000000" d="M1433.587,-503.8314C1438.777,-495.7079 1445.0024,-485.9637 1450.7217,-477.0118"/>
<polygon fill="#000000" stroke="#000000" points="1453.7807,-478.7246 1456.2152,-468.4133 1447.8818,-474.9559 1453.7807,-478.7246"/>
</g>
<!-- [root] module.container.module.volume.var.volume_name (expand)&#45;&gt;[root] module.container.random_string.random (expand) -->
<g id="edge21" class="edge">
<title>[root] module.container.module.volume.var.volume_name (expand)&#45;&gt;[root] module.container.random_string.random (expand)</title>
<path fill="none" stroke="#000000" d="M639.3529,-362.2438C754.6521,-350.5515 911.5773,-334.6379 1029.0857,-322.7216"/>
<polygon fill="#000000" stroke="#000000" points="1029.662,-326.1812 1039.2578,-321.6901 1028.9557,-319.2169 1029.662,-326.1812"/>
</g>
<!-- [root] module.container.module.volume (expand) -->
<g id="node22" class="node">
<title>[root] module.container.module.volume (expand)</title>
<ellipse fill="none" stroke="#000000" cx="762.9792" cy="-306" rx="237.4581" ry="18"/>
<text text-anchor="middle" x="762.9792" y="-302.3" font-family="Times,serif" font-size="14.00" fill="#000000">[root] module.container.module.volume (expand)</text>
</g>
<!-- [root] module.container.module.volume.var.volume_name (expand)&#45;&gt;[root] module.container.module.volume (expand) -->
<g id="edge20" class="edge">
<title>[root] module.container.module.volume.var.volume_name (expand)&#45;&gt;[root] module.container.module.volume (expand)</title>
<path fill="none" stroke="#000000" d="M552.2303,-360.3868C592.7042,-349.9419 644.1161,-336.6743 686.0283,-325.8583"/>
<polygon fill="#000000" stroke="#000000" points="687.1065,-329.1948 695.9147,-323.307 685.3573,-322.4169 687.1065,-329.1948"/>
</g>
<!-- [root] module.container.var.name_in (expand) -->
<g id="node27" class="node">
<title>[root] module.container.var.name_in (expand)</title>
<ellipse fill="none" stroke="#000000" cx="298.9792" cy="-234" rx="222.0608" ry="18"/>
<text text-anchor="middle" x="298.9792" y="-230.3" font-family="Times,serif" font-size="14.00" fill="#000000">[root] module.container.var.name_in (expand)</text>
</g>
<!-- [root] module.container.module.volume.var.volume_name (expand)&#45;&gt;[root] module.container.var.name_in (expand) -->
<g id="edge22" class="edge">
<title>[root] module.container.module.volume.var.volume_name (expand)&#45;&gt;[root] module.container.var.name_in (expand)</title>
<path fill="none" stroke="#000000" d="M460.5489,-359.7623C427.4654,-334.0108 366.9951,-286.942 330.1514,-258.2637"/>
<polygon fill="#000000" stroke="#000000" points="332.2605,-255.4701 322.2194,-252.0896 327.9608,-260.994 332.2605,-255.4701"/>
</g>
<!-- [root] module.container.module.volume (expand)&#45;&gt;[root] module.container.var.count_in (expand) -->
<g id="edge13" class="edge">
<title>[root] module.container.module.volume (expand)&#45;&gt;[root] module.container.var.count_in (expand)</title>
<path fill="none" stroke="#000000" d="M762.9792,-287.8314C762.9792,-280.131 762.9792,-270.9743 762.9792,-262.4166"/>
<polygon fill="#000000" stroke="#000000" points="766.4793,-262.4132 762.9792,-252.4133 759.4793,-262.4133 766.4793,-262.4132"/>
</g>
<!-- [root] module.container.var.count_in (expand)&#45;&gt;[root] module.container (expand) -->
<g id="edge26" class="edge">
<title>[root] module.container.var.count_in (expand)&#45;&gt;[root] module.container (expand)</title>
<path fill="none" stroke="#000000" d="M921.4957,-221.2992C946.4153,-219.4339 971.8923,-217.6035 995.9792,-216 1279.3885,-197.1336 1609.873,-179.6302 1801.5854,-169.9209"/>
<polygon fill="#000000" stroke="#000000" points="1801.9313,-173.408 1811.7417,-169.4072 1801.5777,-166.4169 1801.9313,-173.408"/>
</g>
<!-- [root] module.container.module.volume.var.volume_count (expand)&#45;&gt;[root] module.container.module.volume (expand) -->
<g id="edge18" class="edge">
<title>[root] module.container.module.volume.var.volume_count (expand)&#45;&gt;[root] module.container.module.volume (expand)</title>
<path fill="none" stroke="#000000" d="M1052.9946,-360.6626C995.2904,-349.7864 920.9202,-335.769 861.9388,-324.6521"/>
<polygon fill="#000000" stroke="#000000" points="862.3383,-321.1658 851.8631,-322.753 861.0417,-328.0447 862.3383,-321.1658"/>
</g>
<!-- [root] module.container.var.volumes_in (expand) -->
<g id="node26" class="node">
<title>[root] module.container.var.volumes_in (expand)</title>
<ellipse fill="none" stroke="#000000" cx="1961.9792" cy="-234" rx="235.0585" ry="18"/>
<text text-anchor="middle" x="1961.9792" y="-230.3" font-family="Times,serif" font-size="14.00" fill="#000000">[root] module.container.var.volumes_in (expand)</text>
</g>
<!-- [root] module.container.module.volume.var.volume_count (expand)&#45;&gt;[root] module.container.var.volumes_in (expand) -->
<g id="edge19" class="edge">
<title>[root] module.container.module.volume.var.volume_count (expand)&#45;&gt;[root] module.container.var.volumes_in (expand)</title>
<path fill="none" stroke="#000000" d="M1222.417,-360.4143C1263.0595,-350.6706 1313.5184,-337.7615 1357.9792,-324 1402.3059,-310.2801 1410.7911,-298.5414 1455.9792,-288 1517.4866,-273.6516 1668.1306,-258.486 1789.1558,-247.8919"/>
<polygon fill="#000000" stroke="#000000" points="1789.6313,-251.3639 1799.2899,-247.0094 1789.0239,-244.3903 1789.6313,-251.3639"/>
</g>
<!-- [root] module.container.var.volumes_in (expand)&#45;&gt;[root] module.container (expand) -->
<g id="edge32" class="edge">
<title>[root] module.container.var.volumes_in (expand)&#45;&gt;[root] module.container (expand)</title>
<path fill="none" stroke="#000000" d="M1961.9792,-215.8314C1961.9792,-208.131 1961.9792,-198.9743 1961.9792,-190.4166"/>
<polygon fill="#000000" stroke="#000000" points="1965.4793,-190.4132 1961.9792,-180.4133 1958.4793,-190.4133 1965.4793,-190.4132"/>
</g>
<!-- [root] module.container.var.name_in (expand)&#45;&gt;[root] module.container (expand) -->
<g id="edge31" class="edge">
<title>[root] module.container.var.name_in (expand)&#45;&gt;[root] module.container (expand)</title>
<path fill="none" stroke="#000000" d="M453.9312,-221.0662C479.3315,-219.1932 505.382,-217.4215 529.9792,-216 985.1692,-189.6934 1522.5278,-173.3771 1791.1215,-166.2293"/>
<polygon fill="#000000" stroke="#000000" points="1791.445,-169.7221 1801.3486,-165.9581 1791.2593,-162.7245 1791.445,-169.7221"/>
</g>
<!-- [root] module.image.output.image_out (expand) -->
<g id="node29" class="node">
<title>[root] module.image.output.image_out (expand)</title>
<ellipse fill="none" stroke="#000000" cx="2224.9792" cy="-450" rx="233.1587" ry="18"/>
<text text-anchor="middle" x="2224.9792" y="-446.3" font-family="Times,serif" font-size="14.00" fill="#000000">[root] module.image.output.image_out (expand)</text>
</g>
<!-- [root] module.image (close)&#45;&gt;[root] module.image.output.image_out (expand) -->
<g id="edge33" class="edge">
<title>[root] module.image (close)&#45;&gt;[root] module.image.output.image_out (expand)</title>
<path fill="none" stroke="#000000" d="M2153.4624,-504.2022C2165.3616,-495.1839 2179.9895,-484.0975 2192.909,-474.3059"/>
<polygon fill="#000000" stroke="#000000" points="2195.2507,-476.9228 2201.1064,-468.0931 2191.0226,-471.3439 2195.2507,-476.9228"/>
</g>
<!-- [root] module.image.output.image_out (expand)&#45;&gt;[root] module.image.docker_image.container_img (expand) -->
<g id="edge37" class="edge">
<title>[root] module.image.output.image_out (expand)&#45;&gt;[root] module.image.docker_image.container_img (expand)</title>
<path fill="none" stroke="#000000" d="M2224.9792,-431.8314C2224.9792,-424.131 2224.9792,-414.9743 2224.9792,-406.4166"/>
<polygon fill="#000000" stroke="#000000" points="2228.4793,-406.4132 2224.9792,-396.4133 2221.4793,-406.4133 2228.4793,-406.4132"/>
</g>
<!-- [root] module.image (expand) -->
<g id="node30" class="node">
<title>[root] module.image (expand)</title>
<ellipse fill="none" stroke="#000000" cx="2466.9792" cy="-162" rx="148.3739" ry="18"/>
<text text-anchor="middle" x="2466.9792" y="-158.3" font-family="Times,serif" font-size="14.00" fill="#000000">[root] module.image (expand)</text>
</g>
<!-- [root] module.image (expand)&#45;&gt;[root] local.deployment (expand) -->
<g id="edge34" class="edge">
<title>[root] module.image (expand)&#45;&gt;[root] local.deployment (expand)</title>
<path fill="none" stroke="#000000" d="M2393.2043,-146.3771C2339.9578,-135.1013 2267.9322,-119.8489 2212.224,-108.0518"/>
<polygon fill="#000000" stroke="#000000" points="2212.8818,-104.6136 2202.3736,-105.9659 2211.4315,-111.4617 2212.8818,-104.6136"/>
</g>
<!-- [root] module.image.var.image_in (expand)&#45;&gt;[root] module.image (expand) -->
<g id="edge38" class="edge">
<title>[root] module.image.var.image_in (expand)&#45;&gt;[root] module.image (expand)</title>
<path fill="none" stroke="#000000" d="M2692.2082,-288.1983C2645.5859,-262.0753 2558.6409,-213.359 2507.488,-184.6975"/>
<polygon fill="#000000" stroke="#000000" points="2509.1124,-181.5958 2498.6777,-179.761 2505.6907,-187.7025 2509.1124,-181.5958"/>
</g>
<!-- [root] provider[&quot;registry.terraform.io/hashicorp/random&quot;] (close) -->
<g id="node32" class="node">
<title>[root] provider[&quot;registry.terraform.io/hashicorp/random&quot;] (close)</title>
<ellipse fill="none" stroke="#000000" cx="1792.9792" cy="-810" rx="311.1449" ry="18"/>
<text text-anchor="middle" x="1792.9792" y="-806.3" font-family="Times,serif" font-size="14.00" fill="#000000">[root] provider[&quot;registry.terraform.io/hashicorp/random&quot;] (close)</text>
</g>
<!-- [root] provider[&quot;registry.terraform.io/hashicorp/random&quot;] (close)&#45;&gt;[root] module.container.random_string.random (expand) -->
<g id="edge40" class="edge">
<title>[root] provider[&quot;registry.terraform.io/hashicorp/random&quot;] (close)&#45;&gt;[root] module.container.random_string.random (expand)</title>
<path fill="none" stroke="#000000" d="M1792.9792,-791.8146C1792.9792,-764.4983 1792.9792,-711.25 1792.9792,-666 1792.9792,-666 1792.9792,-666 1792.9792,-450 1792.9792,-409.1184 1804.5034,-387.1953 1773.9792,-360 1766.1884,-353.0588 1527.2493,-332.6137 1358.5224,-318.9677"/>
<polygon fill="#000000" stroke="#000000" points="1358.7744,-315.4768 1348.5251,-318.1605 1358.211,-322.4541 1358.7744,-315.4768"/>
</g>
<!-- [root] provider[&quot;registry.terraform.io/kreuzwerker/docker&quot;] (close) -->
<g id="node33" class="node">
<title>[root] provider[&quot;registry.terraform.io/kreuzwerker/docker&quot;] (close)</title>
<ellipse fill="none" stroke="#000000" cx="822.9792" cy="-738" rx="321.143" ry="18"/>
<text text-anchor="middle" x="822.9792" y="-734.3" font-family="Times,serif" font-size="14.00" fill="#000000">[root] provider[&quot;registry.terraform.io/kreuzwerker/docker&quot;] (close)</text>
</g>
<!-- [root] provider[&quot;registry.terraform.io/kreuzwerker/docker&quot;] (close)&#45;&gt;[root] module.container.docker_container.app_container (expand) -->
<g id="edge41" class="edge">
<title>[root] provider[&quot;registry.terraform.io/kreuzwerker/docker&quot;] (close)&#45;&gt;[root] module.container.docker_container.app_container (expand)</title>
<path fill="none" stroke="#000000" d="M961.3127,-721.752C1053.5672,-710.9163 1175.2615,-696.6226 1272.3315,-685.2213"/>
<polygon fill="#000000" stroke="#000000" points="1273.0189,-688.6647 1282.5423,-684.022 1272.2023,-681.7125 1273.0189,-688.6647"/>
</g>
<!-- [root] root -->
<g id="node34" class="node">
<title>[root] root</title>
<ellipse fill="none" stroke="#000000" cx="1236.9792" cy="-1026" rx="58.4896" ry="18"/>
<text text-anchor="middle" x="1236.9792" y="-1022.3" font-family="Times,serif" font-size="14.00" fill="#000000">[root] root</text>
</g>
<!-- [root] root&#45;&gt;[root] meta.count&#45;boundary (EachMode fixup) -->
<g id="edge42" class="edge">
<title>[root] root&#45;&gt;[root] meta.count&#45;boundary (EachMode fixup)</title>
<path fill="none" stroke="#000000" d="M1236.9792,-1007.8314C1236.9792,-1000.131 1236.9792,-990.9743 1236.9792,-982.4166"/>
<polygon fill="#000000" stroke="#000000" points="1240.4793,-982.4132 1236.9792,-972.4133 1233.4793,-982.4133 1240.4793,-982.4132"/>
</g>
<!-- [root] root&#45;&gt;[root] provider[&quot;registry.terraform.io/hashicorp/random&quot;] (close) -->
<g id="edge43" class="edge">
<title>[root] root&#45;&gt;[root] provider[&quot;registry.terraform.io/hashicorp/random&quot;] (close)</title>
<path fill="none" stroke="#000000" d="M1288.8944,-1017.6177C1336.793,-1009.0341 1409.4388,-993.8463 1469.9792,-972 1577.1844,-933.3145 1694.9004,-867.9496 1754.218,-833.2549"/>
<polygon fill="#000000" stroke="#000000" points="1756.0348,-836.2469 1762.8821,-828.162 1752.4875,-830.2122 1756.0348,-836.2469"/>
</g>
<!-- [root] root&#45;&gt;[root] provider[&quot;registry.terraform.io/kreuzwerker/docker&quot;] (close) -->
<g id="edge44" class="edge">
<title>[root] root&#45;&gt;[root] provider[&quot;registry.terraform.io/kreuzwerker/docker&quot;] (close)</title>
<path fill="none" stroke="#000000" d="M1184.248,-1018.004C1125.0548,-1008.3012 1033.4304,-990.8806 1003.9792,-972 921.2872,-918.9876 861.13,-814.5845 835.9891,-765.1626"/>
<polygon fill="#000000" stroke="#000000" points="839.0327,-763.4233 831.4315,-756.0428 832.7711,-766.5526 839.0327,-763.4233"/>
</g>
</g>
</svg>
