<?xml version="1.0" encoding="UTF-8" standalone="no"?>
<!DOCTYPE svg PUBLIC "-//W3C//DTD SVG 1.1//EN"
 "http://www.w3.org/Graphics/SVG/1.1/DTD/svg11.dtd">
<!-- Generated by graphviz version 2.40.1 (20161225.0304)
 -->
<!-- Title: %3 Pages: 1 -->
<svg width="2523pt" height="548pt"
 viewBox="0.00 0.00 2523.37 548.00" xmlns="http://www.w3.org/2000/svg" xmlns:xlink="http://www.w3.org/1999/xlink">
<g id="graph0" class="graph" transform="scale(1 1) rotate(0) translate(4 544)">
<title>%3</title>
<polygon fill="#ffffff" stroke="transparent" points="-4,4 -4,-544 2519.3733,-544 2519.3733,4 -4,4"/>
<!-- [root] docker_container.nodered_container (expand) -->
<g id="node1" class="node">
<title>[root] docker_container.nodered_container (expand)</title>
<polygon fill="none" stroke="#000000" points="1036.8361,-324 757.8361,-324 757.8361,-288 1036.8361,-288 1036.8361,-324"/>
<text text-anchor="middle" x="897.3361" y="-302.3" font-family="Times,serif" font-size="14.00" fill="#000000">docker_container.nodered_container</text>
</g>
<!-- [root] provider[&quot;registry.terraform.io/kreuzwerker/docker&quot;] -->
<g id="node7" class="node">
<title>[root] provider[&quot;registry.terraform.io/kreuzwerker/docker&quot;]</title>
<polygon fill="none" stroke="#000000" points="1285.3361,-252 919.6868,-234 1285.3361,-216 1650.9854,-234 1285.3361,-252"/>
<text text-anchor="middle" x="1285.3361" y="-230.3" font-family="Times,serif" font-size="14.00" fill="#000000">provider[&quot;registry.terraform.io/kreuzwerker/docker&quot;]</text>
</g>
<!-- [root] docker_container.nodered_container (expand)&#45;&gt;[root] provider[&quot;registry.terraform.io/kreuzwerker/docker&quot;] -->
<g id="edge2" class="edge">
<title>[root] docker_container.nodered_container (expand)&#45;&gt;[root] provider[&quot;registry.terraform.io/kreuzwerker/docker&quot;]</title>
<path fill="none" stroke="#000000" d="M994.4939,-287.9707C1057.2203,-276.3308 1138.1135,-261.3197 1198.6577,-250.0846"/>
<polygon fill="#000000" stroke="#000000" points="1199.3799,-253.5105 1208.5734,-248.2446 1198.1026,-246.628 1199.3799,-253.5105"/>
</g>
<!-- [root] random_string.random (expand) -->
<g id="node8" class="node">
<title>[root] random_string.random (expand)</title>
<polygon fill="none" stroke="#000000" points="1998.8361,-252 1817.8361,-252 1817.8361,-216 1998.8361,-216 1998.8361,-252"/>
<text text-anchor="middle" x="1908.3361" y="-230.3" font-family="Times,serif" font-size="14.00" fill="#000000">random_string.random</text>
</g>
<!-- [root] docker_container.nodered_container (expand)&#45;&gt;[root] random_string.random (expand) -->
<g id="edge3" class="edge">
<title>[root] docker_container.nodered_container (expand)&#45;&gt;[root] random_string.random (expand)</title>
<path fill="none" stroke="#000000" d="M1036.9201,-296.1968C1189.9144,-285.4341 1442.6102,-267.6059 1660.3361,-252 1708.7734,-248.5282 1762.5287,-244.6319 1807.5754,-241.3545"/>
<polygon fill="#000000" stroke="#000000" points="1807.921,-244.8387 1817.6406,-240.622 1807.4129,-237.8572 1807.921,-244.8387"/>
</g>
<!-- [root] var.int_port -->
<g id="node11" class="node">
<title>[root] var.int_port</title>
<polygon fill="none" stroke="#000000" points="895.3361,-252 801.3361,-252 801.3361,-216 901.3361,-216 901.3361,-246 895.3361,-252"/>
<polyline fill="none" stroke="#000000" points="895.3361,-252 895.3361,-246 "/>
<polyline fill="none" stroke="#000000" points="901.3361,-246 895.3361,-246 "/>
<text text-anchor="middle" x="851.3361" y="-230.3" font-family="Times,serif" font-size="14.00" fill="#000000">var.int_port</text>
</g>
<!-- [root] docker_container.nodered_container (expand)&#45;&gt;[root] var.int_port -->
<g id="edge4" class="edge">
<title>[root] docker_container.nodered_container (expand)&#45;&gt;[root] var.int_port</title>
<path fill="none" stroke="#000000" d="M885.7284,-287.8314C880.5383,-279.7079 874.3129,-269.9637 868.5936,-261.0118"/>
<polygon fill="#000000" stroke="#000000" points="871.4335,-258.9559 863.1001,-252.4133 865.5346,-262.7246 871.4335,-258.9559"/>
</g>
<!-- [root] module.image.output.image_out (expand) -->
<g id="node12" class="node">
<title>[root] module.image.output.image_out (expand)</title>
<ellipse fill="none" stroke="#000000" cx="550.3361" cy="-234" rx="233.1587" ry="18"/>
<text text-anchor="middle" x="550.3361" y="-230.3" font-family="Times,serif" font-size="14.00" fill="#000000">[root] module.image.output.image_out (expand)</text>
</g>
<!-- [root] docker_container.nodered_container (expand)&#45;&gt;[root] module.image.output.image_out (expand) -->
<g id="edge1" class="edge">
<title>[root] docker_container.nodered_container (expand)&#45;&gt;[root] module.image.output.image_out (expand)</title>
<path fill="none" stroke="#000000" d="M810.2212,-287.9243C758.827,-277.2604 693.8554,-263.7792 641.7325,-252.9641"/>
<polygon fill="#000000" stroke="#000000" points="642.3245,-249.5124 631.8219,-250.9077 640.9022,-256.3665 642.3245,-249.5124"/>
</g>
<!-- [root] module.image.docker_image.nodered_img (expand) -->
<g id="node2" class="node">
<title>[root] module.image.docker_image.nodered_img (expand)</title>
<polygon fill="none" stroke="#000000" points="987.3361,-180 667.3361,-180 667.3361,-144 987.3361,-144 987.3361,-180"/>
<text text-anchor="middle" x="827.3361" y="-158.3" font-family="Times,serif" font-size="14.00" fill="#000000">module.image.docker_image.nodered_img</text>
</g>
<!-- [root] module.image.provider[&quot;registry.terraform.io/kreuzwerker/docker&quot;] -->
<g id="node3" class="node">
<title>[root] module.image.provider[&quot;registry.terraform.io/kreuzwerker/docker&quot;]</title>
<polygon fill="none" stroke="#000000" points="462.3361,-108 .1638,-90 462.3361,-72 924.5084,-90 462.3361,-108"/>
<text text-anchor="middle" x="462.3361" y="-86.3" font-family="Times,serif" font-size="14.00" fill="#000000">module.image.provider[&quot;registry.terraform.io/kreuzwerker/docker&quot;]</text>
</g>
<!-- [root] module.image.docker_image.nodered_img (expand)&#45;&gt;[root] module.image.provider[&quot;registry.terraform.io/kreuzwerker/docker&quot;] -->
<g id="edge10" class="edge">
<title>[root] module.image.docker_image.nodered_img (expand)&#45;&gt;[root] module.image.provider[&quot;registry.terraform.io/kreuzwerker/docker&quot;]</title>
<path fill="none" stroke="#000000" d="M735.7023,-143.9243C678.3295,-132.6069 604.8713,-118.1165 548.5536,-107.0073"/>
<polygon fill="#000000" stroke="#000000" points="549.0904,-103.5458 538.602,-105.0442 547.7356,-110.4135 549.0904,-103.5458"/>
</g>
<!-- [root] module.image.var.image_in (expand) -->
<g id="node16" class="node">
<title>[root] module.image.var.image_in (expand)</title>
<ellipse fill="none" stroke="#000000" cx="1152.3361" cy="-90" rx="209.8628" ry="18"/>
<text text-anchor="middle" x="1152.3361" y="-86.3" font-family="Times,serif" font-size="14.00" fill="#000000">[root] module.image.var.image_in (expand)</text>
</g>
<!-- [root] module.image.docker_image.nodered_img (expand)&#45;&gt;[root] module.image.var.image_in (expand) -->
<g id="edge11" class="edge">
<title>[root] module.image.docker_image.nodered_img (expand)&#45;&gt;[root] module.image.var.image_in (expand)</title>
<path fill="none" stroke="#000000" d="M908.9278,-143.9243C956.9515,-133.2852 1017.6324,-119.8421 1066.3927,-109.0398"/>
<polygon fill="#000000" stroke="#000000" points="1067.2865,-112.4267 1076.2927,-106.8465 1065.7724,-105.5924 1067.2865,-112.4267"/>
</g>
<!-- [root] module.image (expand) -->
<g id="node18" class="node">
<title>[root] module.image (expand)</title>
<ellipse fill="none" stroke="#000000" cx="703.3361" cy="-18" rx="148.3739" ry="18"/>
<text text-anchor="middle" x="703.3361" y="-14.3" font-family="Times,serif" font-size="14.00" fill="#000000">[root] module.image (expand)</text>
</g>
<!-- [root] module.image.provider[&quot;registry.terraform.io/kreuzwerker/docker&quot;]&#45;&gt;[root] module.image (expand) -->
<g id="edge14" class="edge">
<title>[root] module.image.provider[&quot;registry.terraform.io/kreuzwerker/docker&quot;]&#45;&gt;[root] module.image (expand)</title>
<path fill="none" stroke="#000000" d="M515.8218,-74.0209C551.7197,-63.2962 599.2522,-49.0956 637.4777,-37.6755"/>
<polygon fill="#000000" stroke="#000000" points="638.9079,-40.9012 647.4875,-34.6851 636.904,-34.1941 638.9079,-40.9012"/>
</g>
<!-- [root] output.Container&#45;Style1 -->
<g id="node4" class="node">
<title>[root] output.Container&#45;Style1</title>
<polygon fill="none" stroke="#000000" points="778.3361,-396 594.3361,-396 594.3361,-360 784.3361,-360 784.3361,-390 778.3361,-396"/>
<polyline fill="none" stroke="#000000" points="778.3361,-396 778.3361,-390 "/>
<polyline fill="none" stroke="#000000" points="784.3361,-390 778.3361,-390 "/>
<text text-anchor="middle" x="689.3361" y="-374.3" font-family="Times,serif" font-size="14.00" fill="#000000">output.Container&#45;Style1</text>
</g>
<!-- [root] output.Container&#45;Style1&#45;&gt;[root] docker_container.nodered_container (expand) -->
<g id="edge17" class="edge">
<title>[root] output.Container&#45;Style1&#45;&gt;[root] docker_container.nodered_container (expand)</title>
<path fill="none" stroke="#000000" d="M741.5548,-359.9243C770.1132,-350.0387 805.6656,-337.7321 835.5929,-327.3726"/>
<polygon fill="#000000" stroke="#000000" points="836.791,-330.6618 845.0959,-324.0831 834.5011,-324.0469 836.791,-330.6618"/>
</g>
<!-- [root] output.Container&#45;Style2 -->
<g id="node5" class="node">
<title>[root] output.Container&#45;Style2</title>
<polygon fill="none" stroke="#000000" points="986.3361,-396 802.3361,-396 802.3361,-360 992.3361,-360 992.3361,-390 986.3361,-396"/>
<polyline fill="none" stroke="#000000" points="986.3361,-396 986.3361,-390 "/>
<polyline fill="none" stroke="#000000" points="992.3361,-390 986.3361,-390 "/>
<text text-anchor="middle" x="897.3361" y="-374.3" font-family="Times,serif" font-size="14.00" fill="#000000">output.Container&#45;Style2</text>
</g>
<!-- [root] output.Container&#45;Style2&#45;&gt;[root] docker_container.nodered_container (expand) -->
<g id="edge18" class="edge">
<title>[root] output.Container&#45;Style2&#45;&gt;[root] docker_container.nodered_container (expand)</title>
<path fill="none" stroke="#000000" d="M897.3361,-359.8314C897.3361,-352.131 897.3361,-342.9743 897.3361,-334.4166"/>
<polygon fill="#000000" stroke="#000000" points="900.8362,-334.4132 897.3361,-324.4133 893.8362,-334.4133 900.8362,-334.4132"/>
</g>
<!-- [root] provider[&quot;registry.terraform.io/hashicorp/random&quot;] -->
<g id="node6" class="node">
<title>[root] provider[&quot;registry.terraform.io/hashicorp/random&quot;]</title>
<polygon fill="none" stroke="#000000" points="2163.3361,-180 1811.2616,-162 2163.3361,-144 2515.4106,-162 2163.3361,-180"/>
<text text-anchor="middle" x="2163.3361" y="-158.3" font-family="Times,serif" font-size="14.00" fill="#000000">provider[&quot;registry.terraform.io/hashicorp/random&quot;]</text>
</g>
<!-- [root] random_string.random (expand)&#45;&gt;[root] provider[&quot;registry.terraform.io/hashicorp/random&quot;] -->
<g id="edge22" class="edge">
<title>[root] random_string.random (expand)&#45;&gt;[root] provider[&quot;registry.terraform.io/hashicorp/random&quot;]</title>
<path fill="none" stroke="#000000" d="M1972.3542,-215.9243C2011.2517,-204.9415 2060.7324,-190.9704 2099.5819,-180.0012"/>
<polygon fill="#000000" stroke="#000000" points="2100.5443,-183.3664 2109.217,-177.2807 2098.6421,-176.6298 2100.5443,-183.3664"/>
</g>
<!-- [root] local.container_count (expand) -->
<g id="node13" class="node">
<title>[root] local.container_count (expand)</title>
<ellipse fill="none" stroke="#000000" cx="1610.3361" cy="-162" rx="183.0677" ry="18"/>
<text text-anchor="middle" x="1610.3361" y="-158.3" font-family="Times,serif" font-size="14.00" fill="#000000">[root] local.container_count (expand)</text>
</g>
<!-- [root] random_string.random (expand)&#45;&gt;[root] local.container_count (expand) -->
<g id="edge21" class="edge">
<title>[root] random_string.random (expand)&#45;&gt;[root] local.container_count (expand)</title>
<path fill="none" stroke="#000000" d="M1833.5228,-215.9243C1789.6043,-205.3131 1734.1408,-191.9126 1689.4916,-181.1248"/>
<polygon fill="#000000" stroke="#000000" points="1690.0987,-177.6709 1679.5564,-178.7244 1688.4547,-184.4751 1690.0987,-177.6709"/>
</g>
<!-- [root] var.ext_port -->
<g id="node9" class="node">
<title>[root] var.ext_port</title>
<polygon fill="none" stroke="#000000" points="1655.8361,-108 1558.8361,-108 1558.8361,-72 1661.8361,-72 1661.8361,-102 1655.8361,-108"/>
<polyline fill="none" stroke="#000000" points="1655.8361,-108 1655.8361,-102 "/>
<polyline fill="none" stroke="#000000" points="1661.8361,-102 1655.8361,-102 "/>
<text text-anchor="middle" x="1610.3361" y="-86.3" font-family="Times,serif" font-size="14.00" fill="#000000">var.ext_port</text>
</g>
<!-- [root] var.image -->
<g id="node10" class="node">
<title>[root] var.image</title>
<polygon fill="none" stroke="#000000" points="1189.3361,-36 1109.3361,-36 1109.3361,0 1195.3361,0 1195.3361,-30 1189.3361,-36"/>
<polyline fill="none" stroke="#000000" points="1189.3361,-36 1189.3361,-30 "/>
<polyline fill="none" stroke="#000000" points="1195.3361,-30 1189.3361,-30 "/>
<text text-anchor="middle" x="1152.3361" y="-14.3" font-family="Times,serif" font-size="14.00" fill="#000000">var.image</text>
</g>
<!-- [root] module.image.output.image_out (expand)&#45;&gt;[root] module.image.docker_image.nodered_img (expand) -->
<g id="edge12" class="edge">
<title>[root] module.image.output.image_out (expand)&#45;&gt;[root] module.image.docker_image.nodered_img (expand)</title>
<path fill="none" stroke="#000000" d="M617.037,-216.6626C656.4594,-206.4156 706.6091,-193.3803 748.0472,-182.6094"/>
<polygon fill="#000000" stroke="#000000" points="749.0374,-185.9684 757.8353,-180.0652 747.2764,-179.1935 749.0374,-185.9684"/>
</g>
<!-- [root] local.container_count (expand)&#45;&gt;[root] var.ext_port -->
<g id="edge5" class="edge">
<title>[root] local.container_count (expand)&#45;&gt;[root] var.ext_port</title>
<path fill="none" stroke="#000000" d="M1610.3361,-143.8314C1610.3361,-136.131 1610.3361,-126.9743 1610.3361,-118.4166"/>
<polygon fill="#000000" stroke="#000000" points="1613.8362,-118.4132 1610.3361,-108.4133 1606.8362,-118.4133 1613.8362,-118.4132"/>
</g>
<!-- [root] meta.count&#45;boundary (EachMode fixup) -->
<g id="node14" class="node">
<title>[root] meta.count&#45;boundary (EachMode fixup)</title>
<ellipse fill="none" stroke="#000000" cx="689.3361" cy="-450" rx="224.4604" ry="18"/>
<text text-anchor="middle" x="689.3361" y="-446.3" font-family="Times,serif" font-size="14.00" fill="#000000">[root] meta.count&#45;boundary (EachMode fixup)</text>
</g>
<!-- [root] meta.count&#45;boundary (EachMode fixup)&#45;&gt;[root] output.Container&#45;Style1 -->
<g id="edge7" class="edge">
<title>[root] meta.count&#45;boundary (EachMode fixup)&#45;&gt;[root] output.Container&#45;Style1</title>
<path fill="none" stroke="#000000" d="M689.3361,-431.8314C689.3361,-424.131 689.3361,-414.9743 689.3361,-406.4166"/>
<polygon fill="#000000" stroke="#000000" points="692.8362,-406.4132 689.3361,-396.4133 685.8362,-406.4133 692.8362,-406.4132"/>
</g>
<!-- [root] meta.count&#45;boundary (EachMode fixup)&#45;&gt;[root] output.Container&#45;Style2 -->
<g id="edge8" class="edge">
<title>[root] meta.count&#45;boundary (EachMode fixup)&#45;&gt;[root] output.Container&#45;Style2</title>
<path fill="none" stroke="#000000" d="M740.2186,-432.3868C768.9777,-422.4318 805.1443,-409.9125 835.5265,-399.3956"/>
<polygon fill="#000000" stroke="#000000" points="836.8659,-402.6358 845.1708,-396.0572 834.5761,-396.0209 836.8659,-402.6358"/>
</g>
<!-- [root] module.image (close) -->
<g id="node15" class="node">
<title>[root] module.image (close)</title>
<ellipse fill="none" stroke="#000000" cx="554.3361" cy="-306" rx="138.3755" ry="18"/>
<text text-anchor="middle" x="554.3361" y="-302.3" font-family="Times,serif" font-size="14.00" fill="#000000">[root] module.image (close)</text>
</g>
<!-- [root] meta.count&#45;boundary (EachMode fixup)&#45;&gt;[root] module.image (close) -->
<g id="edge6" class="edge">
<title>[root] meta.count&#45;boundary (EachMode fixup)&#45;&gt;[root] module.image (close)</title>
<path fill="none" stroke="#000000" d="M637.4992,-432.439C618.912,-423.9367 599.1566,-412.0207 585.3361,-396 570.3079,-378.5793 562.457,-353.4892 558.4215,-334.2234"/>
<polygon fill="#000000" stroke="#000000" points="561.827,-333.3927 556.5508,-324.2051 554.9459,-334.6776 561.827,-333.3927"/>
</g>
<!-- [root] module.image (close)&#45;&gt;[root] module.image.output.image_out (expand) -->
<g id="edge9" class="edge">
<title>[root] module.image (close)&#45;&gt;[root] module.image.output.image_out (expand)</title>
<path fill="none" stroke="#000000" d="M553.3267,-287.8314C552.8989,-280.131 552.3902,-270.9743 551.9148,-262.4166"/>
<polygon fill="#000000" stroke="#000000" points="555.4085,-262.2037 551.3591,-252.4133 548.4192,-262.592 555.4085,-262.2037"/>
</g>
<!-- [root] module.image.var.image_in (expand)&#45;&gt;[root] var.image -->
<g id="edge16" class="edge">
<title>[root] module.image.var.image_in (expand)&#45;&gt;[root] var.image</title>
<path fill="none" stroke="#000000" d="M1152.3361,-71.8314C1152.3361,-64.131 1152.3361,-54.9743 1152.3361,-46.4166"/>
<polygon fill="#000000" stroke="#000000" points="1155.8362,-46.4132 1152.3361,-36.4133 1148.8362,-46.4133 1155.8362,-46.4132"/>
</g>
<!-- [root] module.image.var.image_in (expand)&#45;&gt;[root] module.image (expand) -->
<g id="edge15" class="edge">
<title>[root] module.image.var.image_in (expand)&#45;&gt;[root] module.image (expand)</title>
<path fill="none" stroke="#000000" d="M1053.2453,-74.1102C979.003,-62.2049 877.8192,-45.9795 803.3539,-34.0385"/>
<polygon fill="#000000" stroke="#000000" points="803.4575,-30.5105 793.0294,-32.3829 802.3491,-37.4222 803.4575,-30.5105"/>
</g>
<!-- [root] module.image.provider[&quot;registry.terraform.io/kreuzwerker/docker&quot;] (close) -->
<g id="node17" class="node">
<title>[root] module.image.provider[&quot;registry.terraform.io/kreuzwerker/docker&quot;] (close)</title>
<ellipse fill="none" stroke="#000000" cx="1601.3361" cy="-378" rx="389.131" ry="18"/>
<text text-anchor="middle" x="1601.3361" y="-374.3" font-family="Times,serif" font-size="14.00" fill="#000000">[root] module.image.provider[&quot;registry.terraform.io/kreuzwerker/docker&quot;] (close)</text>
</g>
<!-- [root] module.image.provider[&quot;registry.terraform.io/kreuzwerker/docker&quot;] (close)&#45;&gt;[root] module.image.docker_image.nodered_img (expand) -->
<g id="edge13" class="edge">
<title>[root] module.image.provider[&quot;registry.terraform.io/kreuzwerker/docker&quot;] (close)&#45;&gt;[root] module.image.docker_image.nodered_img (expand)</title>
<path fill="none" stroke="#000000" d="M1618.6049,-359.782C1647.619,-326.996 1699.33,-257.6035 1660.3361,-216 1638.0174,-192.1876 1234.5475,-175.1466 997.4572,-167.1399"/>
<polygon fill="#000000" stroke="#000000" points="997.4573,-163.638 987.3455,-166.8005 997.2224,-170.6341 997.4573,-163.638"/>
</g>
<!-- [root] provider[&quot;registry.terraform.io/hashicorp/random&quot;] (close) -->
<g id="node19" class="node">
<title>[root] provider[&quot;registry.terraform.io/hashicorp/random&quot;] (close)</title>
<ellipse fill="none" stroke="#000000" cx="2018.3361" cy="-306" rx="311.1449" ry="18"/>
<text text-anchor="middle" x="2018.3361" y="-302.3" font-family="Times,serif" font-size="14.00" fill="#000000">[root] provider[&quot;registry.terraform.io/hashicorp/random&quot;] (close)</text>
</g>
<!-- [root] provider[&quot;registry.terraform.io/hashicorp/random&quot;] (close)&#45;&gt;[root] random_string.random (expand) -->
<g id="edge19" class="edge">
<title>[root] provider[&quot;registry.terraform.io/hashicorp/random&quot;] (close)&#45;&gt;[root] random_string.random (expand)</title>
<path fill="none" stroke="#000000" d="M1990.8622,-288.0171C1976.8187,-278.825 1959.5493,-267.5213 1944.444,-257.6342"/>
<polygon fill="#000000" stroke="#000000" points="1946.1248,-254.5514 1935.841,-252.0032 1942.2912,-260.4083 1946.1248,-254.5514"/>
</g>
<!-- [root] provider[&quot;registry.terraform.io/kreuzwerker/docker&quot;] (close) -->
<g id="node20" class="node">
<title>[root] provider[&quot;registry.terraform.io/kreuzwerker/docker&quot;] (close)</title>
<ellipse fill="none" stroke="#000000" cx="1252.3361" cy="-450" rx="321.143" ry="18"/>
<text text-anchor="middle" x="1252.3361" y="-446.3" font-family="Times,serif" font-size="14.00" fill="#000000">[root] provider[&quot;registry.terraform.io/kreuzwerker/docker&quot;] (close)</text>
</g>
<!-- [root] provider[&quot;registry.terraform.io/kreuzwerker/docker&quot;] (close)&#45;&gt;[root] docker_container.nodered_container (expand) -->
<g id="edge20" class="edge">
<title>[root] provider[&quot;registry.terraform.io/kreuzwerker/docker&quot;] (close)&#45;&gt;[root] docker_container.nodered_container (expand)</title>
<path fill="none" stroke="#000000" d="M1208.0929,-432.0535C1143.0327,-405.6628 1021.6844,-356.4399 951.4213,-327.9388"/>
<polygon fill="#000000" stroke="#000000" points="952.4393,-324.5748 941.8571,-324.0592 949.8081,-331.0615 952.4393,-324.5748"/>
</g>
<!-- [root] root -->
<g id="node21" class="node">
<title>[root] root</title>
<ellipse fill="none" stroke="#000000" cx="1426.3361" cy="-522" rx="58.4896" ry="18"/>
<text text-anchor="middle" x="1426.3361" y="-518.3" font-family="Times,serif" font-size="14.00" fill="#000000">[root] root</text>
</g>
<!-- [root] root&#45;&gt;[root] meta.count&#45;boundary (EachMode fixup) -->
<g id="edge23" class="edge">
<title>[root] root&#45;&gt;[root] meta.count&#45;boundary (EachMode fixup)</title>
<path fill="none" stroke="#000000" d="M1370.3364,-516.5292C1258.9602,-505.6485 1006.2535,-480.9607 841.9662,-464.9109"/>
<polygon fill="#000000" stroke="#000000" points="842.0584,-461.4034 831.7655,-463.9144 841.3777,-468.3702 842.0584,-461.4034"/>
</g>
<!-- [root] root&#45;&gt;[root] module.image.provider[&quot;registry.terraform.io/kreuzwerker/docker&quot;] (close) -->
<g id="edge24" class="edge">
<title>[root] root&#45;&gt;[root] module.image.provider[&quot;registry.terraform.io/kreuzwerker/docker&quot;] (close)</title>
<path fill="none" stroke="#000000" d="M1473.1615,-511.1948C1513.5542,-500.9399 1567.6434,-484.6576 1582.3361,-468 1597.1317,-451.2257 1601.4249,-425.8659 1602.2788,-406.3365"/>
<polygon fill="#000000" stroke="#000000" points="1605.7809,-406.2338 1602.4443,-396.1781 1598.7818,-406.1198 1605.7809,-406.2338"/>
</g>
<!-- [root] root&#45;&gt;[root] provider[&quot;registry.terraform.io/hashicorp/random&quot;] (close) -->
<g id="edge25" class="edge">
<title>[root] root&#45;&gt;[root] provider[&quot;registry.terraform.io/hashicorp/random&quot;] (close)</title>
<path fill="none" stroke="#000000" d="M1482.8794,-517.2521C1612.7946,-505.1774 1926.9885,-468.9575 1999.3361,-396 2015.2538,-379.9482 2019.3773,-354.1293 2019.883,-334.2532"/>
<polygon fill="#000000" stroke="#000000" points="2023.3829,-334.193 2019.8525,-324.2037 2016.3829,-334.2143 2023.3829,-334.193"/>
</g>
<!-- [root] root&#45;&gt;[root] provider[&quot;registry.terraform.io/kreuzwerker/docker&quot;] (close) -->
<g id="edge26" class="edge">
<title>[root] root&#45;&gt;[root] provider[&quot;registry.terraform.io/kreuzwerker/docker&quot;] (close)</title>
<path fill="none" stroke="#000000" d="M1391.1246,-507.4297C1366.4299,-497.2112 1332.9826,-483.371 1305.1106,-471.8377"/>
<polygon fill="#000000" stroke="#000000" points="1306.0864,-468.4537 1295.508,-467.8642 1303.4099,-474.9219 1306.0864,-468.4537"/>
</g>
</g>
</svg>
